<svg xmlns="http://www.w3.org/2000/svg" width="80" height="80" viewBox="0 0 80 80">
    <g fill="none" fill-rule="evenodd">
        <path fill="#006838" d="M38.915 77.1c13.5-3.8 25.4-12.8 33.3-24.4-4.6-1.1-9.3-1.8-14-1.9-11.2 15.7-29.4 24.9-48.1 28.5 9.6.5 19.5.6 28.8-2.2zM40.915 1c1.6 13.7-1.4 27.9-8.8 39.5-5.9 9.3-14.3 16.9-23.6 22.7-3-12.3-1.6-25.7 4.7-36.7 6.2-11.2 16.6-19.4 27.7-25.5z"/>
        <path fill="#69C028" d="M17.915 65.2c-3 2.4-6.4 4-9.3 6.5 8.2-.9 16-3.8 23.3-7.6 14.9-7.7 26-21.9 30.2-38.1-5.8.8-11.6 1.9-17.2 3.8-4.8 14.5-14.8 26.6-27 35.4z"/>
    </g>
</svg>
