<svg xmlns="http://www.w3.org/2000/svg" width="103" height="26" viewBox="0 0 103 26">
    <g fill="none" fill-rule="evenodd">
        <path fill="#006838" d="M9.842 23.839c4.163-1.19 7.833-4.01 10.27-7.644-1.42-.344-2.869-.564-4.318-.595C12.34 20.518 6.727 23.4.96 24.528c2.96.156 6.013.188 8.881-.69zm86.81-9.805c-2.251.845-2.344 4.76-.03 5.607 1.572.564 3.206-.971 3.175-2.569.185-1.691-1.356-3.665-3.145-3.038zm4.657 6.64c-1.512 2.006-4.811 2.193-6.353.126v5.075h-2.868V11.653h2.868v1.128c1.45-1.441 3.855-1.786 5.489-.533 2.652 1.817 2.991 6.046.864 8.426zm-14.34-4.29c-.093-1.692-1.943-3.008-3.516-2.256-2.282 1.002-2.035 5.106.494 5.576 1.88.47 3.392-1.536 3.022-3.32zm1.572 4.071c-2.066 2.381-6.198 2.35-8.233-.062-1.789-1.974-1.758-5.325.092-7.237a5.058 5.058 0 0 1 2.467-1.503c1.85-.501 4.01-.094 5.397 1.316 2.066 1.91 2.159 5.482.277 7.486zM43.24 15.82c-.216-.657-.463-1.347-1.11-1.66-1.357-.752-3.146.125-3.516 1.629 1.542.031 3.084.031 4.626.031zm-4.687 2.068c.647 2.287 3.67 2.443 5.15.94.524.594 1.048 1.159 1.572 1.754-2.004 1.942-5.366 2.255-7.586.532-2.621-2.005-2.59-6.672.123-8.583 2.252-1.754 5.952-1.315 7.556 1.128.863 1.221.74 2.788.74 4.229-2.529.031-5.058 0-7.555 0zm35.957-6.234h-2.868v10.463h2.868c.154-2.13-.308-4.323.34-6.39.37-1.222 1.665-1.598 2.775-1.536 0-.94-.031-1.848-.031-2.757-1.203.126-2.22.753-3.084 1.567v-1.347zM61.527 20.77c1.48 1.378 3.732 1.817 5.613 1.158.986-.375 1.82-1.064 2.59-1.785a95.416 95.416 0 0 1-1.696-1.942c-.864 1.065-2.344 1.848-3.7 1.221-2.036-.751-2.19-4.04-.278-5.043 1.357-.783 3.022-.188 4.07.877l1.48-1.973c-2.312-2.475-6.722-2.443-8.727.407-1.51 2.068-1.295 5.357.648 7.08zm-10.454-9.21h-2.868v10.463h2.868c.03-2.068-.062-4.167.03-6.234 0-1.316 1.358-2.38 2.622-2.005.863.22 1.172 1.19 1.203 1.974.061 2.098 0 4.197.03 6.296h2.868c-.03-2.287.062-4.573-.03-6.86-.062-1.88-1.542-3.603-3.423-3.728-1.234-.157-2.406.47-3.3 1.284v-1.19zm-25.75 3.76c1.511 1.096 3.485 1.096 5.088 1.973.864.47.648 1.88-.246 2.161-1.82.627-3.609-.595-4.965-1.723-.586.752-1.172 1.472-1.758 2.224 2.25 2.162 5.89 3.195 8.727 1.598 2.004-1.097 2.467-4.072 1.08-5.827-1.11-1.253-2.745-1.597-4.256-2.004-.617-.22-1.388-.345-1.789-.972-.4-.751.154-1.691.956-1.785 1.48-.25 2.93.407 4.132 1.253.494-.752 1.018-1.472 1.511-2.224-1.912-1.504-4.502-2.162-6.877-1.504-1.295.376-2.497 1.285-2.806 2.663-.308 1.41-.092 3.195 1.203 4.166zM10.459-.002c.493 4.293-.432 8.74-2.714 12.374-1.82 2.914-4.41 5.295-7.278 7.111-.925-3.853-.493-8.05 1.45-11.496C3.829 4.48 7.036 1.91 10.459 0z"/>
        <path fill="#69C028" d="M3.366 20.11c-.925.753-1.974 1.254-2.868 2.037 2.529-.282 4.934-1.19 7.185-2.38 4.595-2.413 8.018-6.86 9.314-11.936-1.79.251-3.578.596-5.305 1.19-1.48 4.543-4.564 8.333-8.326 11.09z"/>
    </g>
</svg>
