<svg xmlns="http://www.w3.org/2000/svg" width="199" height="50" viewBox="0 0 199 50">
    <g fill="#FFF" fill-rule="evenodd">
        <path d="M19.015 45.843c8.044-2.289 15.134-7.71 19.84-14.698-2.74-.663-5.54-1.085-8.34-1.145-6.674 9.457-17.517 15-28.66 17.169 5.72.301 11.62.361 17.16-1.326zm167.72-18.855c-4.35 1.626-4.528 9.156-.06 10.783 3.04 1.084 6.197-1.867 6.138-4.94.357-3.253-2.622-7.048-6.078-5.843zm8.997 12.77c-2.92 3.857-9.295 4.217-12.274.242v9.76h-5.54V22.41h5.54v2.168c2.8-2.77 7.448-3.433 10.606-1.024 5.124 3.494 5.78 11.627 1.668 16.205zm-27.705-8.252c-.179-3.253-3.754-5.783-6.792-4.337-4.41 1.928-3.933 9.82.953 10.723 3.634.903 6.554-2.953 5.839-6.386zm3.039 7.831c-3.992 4.579-11.976 4.519-15.909-.12-3.455-3.795-3.396-10.241.18-13.916a9.78 9.78 0 0 1 4.766-2.891c3.575-.964 7.745-.181 10.426 2.53 3.992 3.674 4.171 10.542.537 14.397zM83.54 30.421c-.417-1.264-.893-2.59-2.145-3.192-2.621-1.446-6.077.241-6.792 3.133 2.98.06 5.958.06 8.937.06zm-9.056 3.977c1.251 4.397 7.09 4.699 9.95 1.807 1.013 1.144 2.026 2.229 3.039 3.373-3.873 3.735-10.367 4.338-14.657 1.025-5.065-3.856-5.005-12.832.238-16.507 4.35-3.373 11.5-2.53 14.597 2.17 1.669 2.348 1.43 5.36 1.43 8.132-4.885.06-9.771 0-14.597 0zm69.471-11.988h-5.54v20.12h5.54c.298-4.096-.596-8.313.656-12.289.715-2.35 3.217-3.072 5.362-2.952 0-1.807-.06-3.554-.06-5.302-2.323.242-4.29 1.447-5.958 3.013v-2.59zm-25.083 17.53c2.86 2.65 7.209 3.494 10.843 2.228 1.907-.722 3.516-2.047 5.005-3.433A183.752 183.752 0 0 1 131.444 35c-1.668 2.048-4.528 3.554-7.15 2.349-3.932-1.445-4.23-7.77-.536-9.698 2.622-1.506 5.84-.362 7.865 1.686l2.86-3.795c-4.469-4.76-12.989-4.699-16.861.783-2.92 3.976-2.503 10.302 1.25 13.615zM98.675 22.229h-5.541v20.12h5.54c.06-3.975-.118-8.012.06-11.987 0-2.53 2.622-4.579 5.065-3.856 1.668.422 2.264 2.29 2.323 3.795.12 4.036 0 8.073.06 12.109h5.541c-.06-4.398.12-8.795-.06-13.194-.119-3.614-2.979-6.927-6.613-7.168-2.383-.3-4.647.904-6.375 2.47V22.23zm-49.75 7.229c2.92 2.108 6.732 2.108 9.83 3.795 1.669.904 1.252 3.615-.476 4.157-3.515 1.205-6.971-1.145-9.593-3.313-1.132 1.445-2.264 2.83-3.396 4.277 4.35 4.156 11.38 6.144 16.862 3.072 3.873-2.109 4.766-7.831 2.085-11.205-2.145-2.41-5.303-3.072-8.222-3.855-1.192-.422-2.681-.663-3.456-1.868-.774-1.446.298-3.253 1.847-3.434 2.86-.481 5.66.784 7.984 2.41.953-1.446 1.966-2.831 2.92-4.277-3.694-2.892-8.7-4.157-13.287-2.892-2.502.723-4.826 2.47-5.422 5.12-.596 2.712-.179 6.145 2.324 8.013zM20.207 0c.953 8.253-.834 16.807-5.243 23.795C11.448 29.398 6.444 33.976.903 37.47c-1.788-7.41-.954-15.483 2.8-22.109C7.397 8.615 13.593 3.675 20.207 0zM6.503 38.675C4.716 40.12 2.69 41.085.963 42.59c4.885-.542 9.532-2.289 13.882-4.578 8.877-4.638 15.49-13.193 17.993-22.952-3.456.482-6.911 1.145-10.248 2.29-2.86 8.734-8.818 16.024-16.087 21.325z"/>
    </g>
</svg>
